<svg width="73" height="71" viewBox="0 0 73 71" fill="none" xmlns="http://www.w3.org/2000/svg">
<circle cx="37.5813" cy="35" r="33.5" stroke="black" stroke-width="3"/>
<path d="M60.2073 59.0905C59.0351 60.1459 57.3353 60.6419 55.1236 60.5009C52.9074 60.3596 50.2621 59.5798 47.348 58.1876C41.5243 55.4055 34.8136 50.2671 28.638 43.4084C22.4624 36.5496 18.0536 29.3386 15.8954 23.256C14.8155 20.2124 14.3165 17.5 14.4076 15.2812C14.4986 13.0669 15.1695 11.4282 16.3417 10.3728C17.5138 9.3174 19.2137 8.82145 21.4253 8.96247C23.6415 9.10378 26.2868 9.88356 29.2009 11.2757C35.0246 14.0578 41.7353 19.1962 47.9109 26.055C54.0866 32.9137 58.4953 40.1247 60.6535 46.2073C61.7334 49.251 62.2324 51.9633 62.1413 54.1822C62.0503 56.3964 61.3794 58.0351 60.2073 59.0905Z" stroke="black" stroke-width="2"/>
<path d="M71.5813 37C71.5813 37.8732 70.9539 38.9271 69.2711 40.0638C67.6232 41.177 65.1729 42.2188 62.0553 43.1095C55.8337 44.8871 47.1805 46 37.5813 46C27.9821 46 19.3289 44.8871 13.1073 43.1095C9.98967 42.2188 7.53942 41.177 5.89153 40.0638C4.20874 38.9271 3.5813 37.8732 3.5813 37C3.5813 36.1268 4.20874 35.0729 5.89153 33.9362C7.53942 32.823 9.98967 31.7812 13.1073 30.8905C19.3289 29.1129 27.9821 28 37.5813 28C47.1805 28 55.8337 29.1129 62.0553 30.8905C65.1729 31.7812 67.6232 32.823 69.2711 33.9362C70.9539 35.0729 71.5813 36.1268 71.5813 37Z" stroke="black" stroke-width="2"/>
<path d="M36.3947 3.02079C37.2799 2.98988 38.3547 3.57029 39.5421 5.16016C40.7078 6.72095 41.8305 9.06446 42.8257 12.0641C44.8119 18.0503 46.2175 26.4261 46.5435 35.7626C46.8696 45.099 46.0516 53.5525 44.4879 59.6627C43.7044 62.7244 42.7478 65.1405 41.6939 66.7788C40.6203 68.4477 39.5885 69.1016 38.7034 69.1325C37.8182 69.1635 36.7433 68.583 35.5559 66.9932C34.3903 65.4324 33.2675 63.0889 32.2723 60.0892C30.2862 54.103 28.8805 45.7272 28.5545 36.3908C28.2285 27.0543 29.0464 18.6009 30.6101 12.4907C31.3937 9.42893 32.3502 7.0128 33.4042 5.3745C34.4778 3.70567 35.5095 3.0517 36.3947 3.02079Z" stroke="black" stroke-width="2"/>
<path d="M63.3251 13.6674C64.2355 14.8755 64.5435 16.5831 64.1426 18.7876C63.7415 20.9935 62.6447 23.5919 60.8977 26.4224C57.4071 32.0778 51.4342 38.4768 43.789 44.2379C36.1437 49.999 28.3463 53.9767 21.9479 55.7732C18.7454 56.6724 15.9455 57.0104 13.7144 56.788C11.4848 56.5657 9.92825 55.7989 9.01791 54.5909C8.10758 53.3828 7.79957 51.6752 8.20046 49.4707C8.60159 47.2648 9.69829 44.6664 11.4454 41.8359C14.936 36.1805 20.9088 29.7815 28.5541 24.0204C36.1993 18.2593 43.9967 14.2816 50.3952 12.4851C53.5976 11.5859 56.3976 11.2479 58.6286 11.4703C60.8583 11.6926 62.4148 12.4594 63.3251 13.6674Z" stroke="black" stroke-width="2"/>
</svg>
