<svg width="167" height="71" viewBox="0 0 167 71" fill="none" xmlns="http://www.w3.org/2000/svg">
<path d="M84.4258 28.2422C86.9779 28.2422 88.8724 28.8151 90.1094 29.9609C91.3464 31.1068 91.9648 32.9362 91.9648 35.4492V50H89.6016L88.9766 46.8359H88.8203C88.2214 47.6172 87.5964 48.2747 86.9453 48.8086C86.2943 49.3294 85.5391 49.7266 84.6797 50C83.8333 50.2604 82.7917 50.3906 81.5547 50.3906C80.2526 50.3906 79.0938 50.1628 78.0781 49.707C77.0755 49.2513 76.2812 48.5612 75.6953 47.6367C75.1224 46.7122 74.8359 45.5404 74.8359 44.1211C74.8359 41.9857 75.6823 40.3451 77.375 39.1992C79.0677 38.0534 81.6458 37.4284 85.1094 37.3242L88.8008 37.168V35.8594C88.8008 34.0104 88.4036 32.7148 87.6094 31.9727C86.8151 31.2305 85.6953 30.8594 84.25 30.8594C83.1302 30.8594 82.0625 31.0221 81.0469 31.3477C80.0312 31.6732 79.0677 32.0573 78.1562 32.5L77.1602 30.0391C78.1237 29.5443 79.2305 29.1211 80.4805 28.7695C81.7305 28.418 83.0456 28.2422 84.4258 28.2422ZM88.7617 39.4531L85.5 39.5898C82.8307 39.694 80.9492 40.1302 79.8555 40.8984C78.7617 41.6667 78.2148 42.7539 78.2148 44.1602C78.2148 45.3841 78.5859 46.2891 79.3281 46.875C80.0703 47.4609 81.0534 47.7539 82.2773 47.7539C84.1784 47.7539 85.7344 47.2266 86.9453 46.1719C88.1562 45.1172 88.7617 43.5352 88.7617 41.4258V39.4531ZM97.8867 28.5938V50H94.6445V28.5938H97.8867ZM96.3047 20.5859C96.8385 20.5859 97.2943 20.7617 97.6719 21.1133C98.0625 21.4518 98.2578 21.9857 98.2578 22.7148C98.2578 23.431 98.0625 23.9648 97.6719 24.3164C97.2943 24.668 96.8385 24.8438 96.3047 24.8438C95.7448 24.8438 95.276 24.668 94.8984 24.3164C94.5339 23.9648 94.3516 23.431 94.3516 22.7148C94.3516 21.9857 94.5339 21.4518 94.8984 21.1133C95.276 20.7617 95.7448 20.5859 96.3047 20.5859ZM108.379 50.3906C105.671 50.3906 103.522 49.4661 101.934 47.6172C100.358 45.7682 99.5703 43.0208 99.5703 39.375C99.5703 35.6901 100.378 32.9102 101.992 31.0352C103.607 29.1471 105.755 28.2031 108.438 28.2031C109.57 28.2031 110.56 28.3529 111.406 28.6523C112.253 28.9518 112.982 29.3555 113.594 29.8633C114.206 30.3581 114.72 30.9245 115.137 31.5625H115.371C115.319 31.1589 115.267 30.6055 115.215 29.9023C115.163 29.1992 115.137 28.6263 115.137 28.1836V19.6094H118.379V50H115.762L115.273 46.9531H115.137C114.733 47.5911 114.219 48.1706 113.594 48.6914C112.982 49.2122 112.246 49.6289 111.387 49.9414C110.54 50.2409 109.538 50.3906 108.379 50.3906ZM108.887 47.6953C111.178 47.6953 112.799 47.0443 113.75 45.7422C114.701 44.4401 115.176 42.5065 115.176 39.9414V39.3555C115.176 36.6341 114.72 34.5443 113.809 33.0859C112.91 31.6276 111.27 30.8984 108.887 30.8984C106.895 30.8984 105.404 31.6667 104.414 33.2031C103.424 34.7266 102.93 36.8099 102.93 39.4531C102.93 42.0833 103.418 44.1146 104.395 45.5469C105.384 46.9792 106.882 47.6953 108.887 47.6953ZM129.496 28.2031C131.319 28.2031 132.882 28.6068 134.184 29.4141C135.486 30.2214 136.482 31.3542 137.172 32.8125C137.862 34.2578 138.207 35.9505 138.207 37.8906V39.9023H123.422C123.461 42.4154 124.086 44.3294 125.297 45.6445C126.508 46.9596 128.214 47.6172 130.414 47.6172C131.768 47.6172 132.966 47.4935 134.008 47.2461C135.049 46.9987 136.13 46.6341 137.25 46.1523V49.0039C136.169 49.4857 135.095 49.8372 134.027 50.0586C132.973 50.2799 131.723 50.3906 130.277 50.3906C128.22 50.3906 126.423 49.974 124.887 49.1406C123.363 48.2943 122.178 47.0573 121.332 45.4297C120.486 43.8021 120.062 41.8099 120.062 39.4531C120.062 37.1484 120.447 35.1562 121.215 33.4766C121.996 31.7839 123.09 30.4818 124.496 29.5703C125.915 28.6589 127.582 28.2031 129.496 28.2031ZM129.457 30.8594C127.725 30.8594 126.345 31.4258 125.316 32.5586C124.288 33.6914 123.676 35.2734 123.48 37.3047H134.809C134.796 36.0286 134.594 34.9089 134.203 33.9453C133.826 32.9688 133.246 32.2135 132.465 31.6797C131.684 31.1328 130.681 30.8594 129.457 30.8594ZM147.723 28.2422C150.275 28.2422 152.169 28.8151 153.406 29.9609C154.643 31.1068 155.262 32.9362 155.262 35.4492V50H152.898L152.273 46.8359H152.117C151.518 47.6172 150.893 48.2747 150.242 48.8086C149.591 49.3294 148.836 49.7266 147.977 50C147.13 50.2604 146.089 50.3906 144.852 50.3906C143.549 50.3906 142.391 50.1628 141.375 49.707C140.372 49.2513 139.578 48.5612 138.992 47.6367C138.419 46.7122 138.133 45.5404 138.133 44.1211C138.133 41.9857 138.979 40.3451 140.672 39.1992C142.365 38.0534 144.943 37.4284 148.406 37.3242L152.098 37.168V35.8594C152.098 34.0104 151.701 32.7148 150.906 31.9727C150.112 31.2305 148.992 30.8594 147.547 30.8594C146.427 30.8594 145.359 31.0221 144.344 31.3477C143.328 31.6732 142.365 32.0573 141.453 32.5L140.457 30.0391C141.421 29.5443 142.527 29.1211 143.777 28.7695C145.027 28.418 146.342 28.2422 147.723 28.2422ZM152.059 39.4531L148.797 39.5898C146.128 39.694 144.246 40.1302 143.152 40.8984C142.059 41.6667 141.512 42.7539 141.512 44.1602C141.512 45.3841 141.883 46.2891 142.625 46.875C143.367 47.4609 144.35 47.7539 145.574 47.7539C147.475 47.7539 149.031 47.2266 150.242 46.1719C151.453 45.1172 152.059 43.5352 152.059 41.4258V39.4531Z" fill="black"/>
<circle cx="38" cy="35" r="33.5" stroke="black" stroke-width="3"/>
<path d="M60.6259 59.0905C59.4538 60.1459 57.7539 60.6419 55.5423 60.5009C53.3261 60.3596 50.6808 59.5798 47.7667 58.1876C41.943 55.4055 35.2323 50.2671 29.0567 43.4084C22.881 36.5496 18.4723 29.3386 16.3141 23.256C15.2342 20.2124 14.7352 17.5 14.8263 15.2812C14.9173 13.0669 15.5882 11.4282 16.7603 10.3728C17.9325 9.3174 19.6323 8.82145 21.844 8.96247C24.0602 9.10378 26.7055 9.88356 29.6196 11.2757C35.4433 14.0578 42.154 19.1962 48.3296 26.055C54.5052 32.9137 58.914 40.1247 61.0722 46.2073C62.1521 49.251 62.6511 51.9633 62.56 54.1822C62.469 56.3964 61.7981 58.0351 60.6259 59.0905Z" stroke="black" stroke-width="2"/>
<path d="M72 37C72 37.8732 71.3726 38.9271 69.6898 40.0638C68.0419 41.177 65.5916 42.2188 62.474 43.1095C56.2524 44.8871 47.5992 46 38 46C28.4008 46 19.7476 44.8871 13.526 43.1095C10.4084 42.2188 7.95812 41.177 6.31023 40.0638C4.62744 38.9271 4 37.8732 4 37C4 36.1268 4.62744 35.0729 6.31023 33.9362C7.95812 32.823 10.4084 31.7812 13.526 30.8905C19.7476 29.1129 28.4008 28 38 28C47.5992 28 56.2524 29.1129 62.474 30.8905C65.5916 31.7812 68.0419 32.823 69.6898 33.9362C71.3726 35.0729 72 36.1268 72 37Z" stroke="black" stroke-width="2"/>
<path d="M36.8134 3.02079C37.6986 2.98988 38.7734 3.57029 39.9608 5.16016C41.1265 6.72095 42.2492 9.06446 43.2444 12.0641C45.2306 18.0503 46.6362 26.4261 46.9622 35.7626C47.2883 45.099 46.4703 53.5525 44.9066 59.6627C44.1231 62.7244 43.1665 65.1405 42.1126 66.7788C41.039 68.4477 40.0072 69.1016 39.1221 69.1325C38.2369 69.1635 37.162 68.583 35.9746 66.9932C34.809 65.4324 33.6862 63.0889 32.691 60.0892C30.7049 54.103 29.2992 45.7272 28.9732 36.3908C28.6472 27.0543 29.4651 18.6009 31.0288 12.4907C31.8124 9.42893 32.7689 7.0128 33.8229 5.3745C34.8965 3.70567 35.9282 3.0517 36.8134 3.02079Z" stroke="black" stroke-width="2"/>
<path d="M63.7438 13.6674C64.6541 14.8755 64.9622 16.5831 64.5613 18.7876C64.1601 20.9935 63.0634 23.5919 61.3164 26.4224C57.8258 32.0778 51.8529 38.4768 44.2077 44.2379C36.5624 49.999 28.765 53.9767 22.3666 55.7732C19.1641 56.6724 16.3641 57.0104 14.1331 56.788C11.9035 56.5657 10.3469 55.7989 9.4366 54.5909C8.52626 53.3828 8.21826 51.6752 8.61914 49.4707C9.02028 47.2648 10.117 44.6664 11.864 41.8359C15.3546 36.1805 21.3275 29.7815 28.9727 24.0204C36.618 18.2593 44.4154 14.2816 50.8138 12.4851C54.0163 11.5859 56.8163 11.2479 59.0473 11.4703C61.2769 11.6926 62.8335 12.4594 63.7438 13.6674Z" stroke="black" stroke-width="2"/>
</svg>
